<svg xmlns="http://www.w3.org/2000/svg" viewBox="0 0 414.75 185"><defs><style>.cls-1{fill:#fff;stroke:#000;stroke-miterlimit:10;stroke-width:8px;}</style></defs><g id="Layer_2" data-name="Layer 2"><g id="Layer_1-2" data-name="Layer 1"><rect class="cls-1" x="4" y="4" width="406.75" height="177"/><path d="M112.5,33.5V137c0,4.76-.06,9.53,0,14.29v.2A12.42,12.42,0,0,0,116,160a12.24,12.24,0,0,0,8.49,3.51c6.5-.29,12-5.27,12-12V48c0-4.76.06-9.53,0-14.29v-.2A12.42,12.42,0,0,0,133,25a12.24,12.24,0,0,0-8.49-3.51c-6.5.29-12,5.27-12,12Z"/><path d="M78.5,33.5V137c0,4.76-.06,9.53,0,14.29v.2A12.42,12.42,0,0,0,82,160a12.24,12.24,0,0,0,8.49,3.51c6.5-.29,12-5.27,12-12V48c0-4.76.06-9.53,0-14.29v-.2A12.42,12.42,0,0,0,99,25,12.24,12.24,0,0,0,90.5,21.5c-6.5.29-12,5.27-12,12Z"/><path d="M22.87,48.29,43.78,63.7,76.84,88.09l7.6,5.6c2.36,1.74,6.56,2,9.25,1.21a12,12,0,0,0,8.38-14.76l-1.21-2.86A12.08,12.08,0,0,0,96.56,73L75.65,57.55,42.59,33.17,35,27.56c-2.36-1.73-6.56-1.95-9.25-1.21a12.25,12.25,0,0,0-7.17,5.52,12.12,12.12,0,0,0-1.21,9.25L18.57,44a12.16,12.16,0,0,0,4.3,4.31Z"/><path d="M267.75,33.5V137c0,4.76-.06,9.53,0,14.29v.2a12.42,12.42,0,0,0,3.51,8.49,12.24,12.24,0,0,0,8.49,3.51c6.5-.29,12-5.27,12-12V48c0-4.76.06-9.53,0-14.29v-.2A12.42,12.42,0,0,0,288.24,25a12.24,12.24,0,0,0-8.49-3.51c-6.5.29-12,5.27-12,12Z"/><path d="M301.75,33.5V137c0,4.76-.06,9.53,0,14.29v.2a12.42,12.42,0,0,0,3.51,8.49,12.24,12.24,0,0,0,8.49,3.51c6.5-.29,12-5.27,12-12V48c0-4.76.06-9.53,0-14.29v-.2A12.42,12.42,0,0,0,322.24,25a12.24,12.24,0,0,0-8.49-3.51c-6.5.29-12,5.27-12,12Z"/><path d="M382.38,136.4,361.47,121,328.41,96.59l-7.6-5.6c-2.36-1.74-6.56-1.95-9.25-1.21a12.27,12.27,0,0,0-7.17,5.51,12.13,12.13,0,0,0-1.21,9.25l1.21,2.87a12.13,12.13,0,0,0,4.3,4.3l20.91,15.42,33.06,24.38,7.6,5.61c2.36,1.73,6.56,1.95,9.25,1.21a12.25,12.25,0,0,0,7.17-5.52,12.1,12.1,0,0,0,1.21-9.24l-1.21-2.87a12.05,12.05,0,0,0-4.3-4.3Z"/><path d="M159.37,58h75.39c3.49,0,7,0,10.47,0h.15a12.41,12.41,0,0,0,8.48-3.51A12.25,12.25,0,0,0,257.38,46c-.3-6.5-5.28-12-12-12H170c-3.49,0-7,0-10.47,0h-.15a12.41,12.41,0,0,0-8.48,3.51A12.25,12.25,0,0,0,147.37,46c.3,6.5,5.28,12,12,12Z"/><path d="M172,104.5h60.81a12.39,12.39,0,0,0,8.48-3.51,12.25,12.25,0,0,0,3.52-8.49c-.29-6.5-5.28-12-12-12H172A12.39,12.39,0,0,0,163.49,84,12.25,12.25,0,0,0,160,92.5c.29,6.5,5.28,12,12,12Z"/><path d="M159.37,151h75.39c3.49,0,7,.05,10.47,0h.15a12.41,12.41,0,0,0,8.48-3.51,12.25,12.25,0,0,0,3.52-8.49c-.3-6.5-5.28-12-12-12H170c-3.49,0-7,0-10.47,0h-.15a12.41,12.41,0,0,0-8.48,3.51,12.25,12.25,0,0,0-3.52,8.49c.3,6.5,5.28,12,12,12Z"/></g></g></svg>