<svg id="Layer" enable-background="new 0 0 64 64" height="512" viewBox="0 0 64 64" width="512" xmlns="http://www.w3.org/2000/svg"><path d="m52 10h-24c-1.104 0-2 .896-2 2s.896 2 2 2h24v24h-22c-.514 0-1.007.197-1.379.552l-10.621 10.111v-8.663c0-1.104-.896-2-2-2h-4v-12c0-1.104-.896-2-2-2s-2 .896-2 2v12c0 2.206 1.794 4 4 4h2v8.998c0 1.187.67 2.23 1.747 2.726.407.188.837.279 1.262.279.698 0 1.385-.248 1.944-.729.026-.022.052-.045.076-.069l11.771-11.205h21.2c2.206 0 4-1.794 4-4v-24c0-2.206-1.794-4-4-4z"/><path d="m11 21h5v5c0 1.104.896 2 2 2s2-.896 2-2v-5h5c1.104 0 2-.896 2-2s-.896-2-2-2h-5v-5c0-1.104-.896-2-2-2s-2 .896-2 2v5h-5c-1.104 0-2 .896-2 2s.896 2 2 2z"/></svg>