<svg id="Layer" enable-background="new 0 0 64 64" height="512" viewBox="0 0 64 64" width="512" xmlns="http://www.w3.org/2000/svg"><path d="m41 8c-4.009 0-7.775 1.562-10.604 4.396l-5 5c-.781.781-.781 2.047 0 2.828s2.047.781 2.828 0l5.001-5.001c2.075-2.078 4.836-3.223 7.775-3.223s5.7 1.145 7.777 3.225c2.078 2.075 3.223 4.836 3.223 7.775s-1.145 5.7-3.224 7.776l-5 5c-.781.781-.781 2.047 0 2.828.391.391.902.586 1.414.586s1.023-.195 1.414-.586l4.999-4.999c2.835-2.83 4.397-6.596 4.397-10.605s-1.562-7.775-4.395-10.604c-2.83-2.834-6.596-4.396-10.605-4.396z"/><path d="m38.604 43.776c-.781-.781-2.047-.781-2.828 0l-5.001 5.001c-2.075 2.078-4.836 3.223-7.775 3.223s-5.7-1.145-7.779-3.227c-2.077-2.069-3.221-4.83-3.221-7.773s1.144-5.704 3.224-7.776l5-5c.781-.781.781-2.047 0-2.828s-2.047-.781-2.828 0l-4.997 4.997c-2.837 2.825-4.399 6.592-4.399 10.607s1.562 7.782 4.395 10.604c2.83 2.834 6.596 4.396 10.605 4.396s7.775-1.562 10.604-4.396l5-5c.782-.781.782-2.046 0-2.828z"/><path d="m15.586 18.414c.391.391.902.586 1.414.586s1.023-.195 1.414-.586c.781-.781.781-2.047 0-2.828l-2-2c-.781-.781-2.047-.781-2.828 0s-.781 2.047 0 2.828z"/><path d="m10 22c-1.104 0-2 .896-2 2s.896 2 2 2h2c1.104 0 2-.896 2-2s-.896-2-2-2z"/><path d="m26 12v-2c0-1.104-.896-2-2-2s-2 .896-2 2v2c0 1.104.896 2 2 2s2-.896 2-2z"/><path d="m48.414 45.586c-.781-.781-2.047-.781-2.828 0s-.781 2.047 0 2.828l2 2c.391.391.902.586 1.414.586s1.023-.195 1.414-.586c.781-.781.781-2.047 0-2.828z"/><path d="m40 50c-1.104 0-2 .896-2 2v2c0 1.104.896 2 2 2s2-.896 2-2v-2c0-1.104-.896-2-2-2z"/><path d="m54 38h-2c-1.104 0-2 .896-2 2s.896 2 2 2h2c1.104 0 2-.896 2-2s-.896-2-2-2z"/></svg>