<svg id="Layer" enable-background="new 0 0 64 64" height="512" viewBox="0 0 64 64" width="512" xmlns="http://www.w3.org/2000/svg"><path d="m10 18c1.104 0 2-.896 2-2v-4h6v24h-3c-1.104 0-2 .896-2 2s.896 2 2 2h18c1.104 0 2-.896 2-2s-.896-2-2-2h-3v-24h6v4c0 1.104.896 2 2 2s2-.896 2-2v-6c0-1.104-.896-2-2-2h-28c-1.104 0-2 .896-2 2v6c0 1.104.896 2 2 2zm16 18h-4v-24h4z"/><path d="m38.176 40.176c-.016.016-.026.034-.041.05l-3.67 3.702c-.944.945-1.465 2.201-1.465 3.536s.521 2.591 1.465 3.536l3.535 3.535c.944.945 2.2 1.465 3.536 1.465 1.335 0 2.591-.52 3.542-1.471l10.343-10.435c.774-.782.771-2.043-.007-2.822l-7.778-7.778c-.375-.375-.884-.586-1.414-.586-.001 0-.003 0-.005 0-.531.001-1.041.214-1.416.592l-6.579 6.638c-.015.014-.032.023-.046.038zm2.652 11.531-3.535-3.535c-.255-.255-.293-.553-.293-.708 0-.154.038-.452.3-.713l2.301-2.322 4.95 4.95-2.308 2.328c-.389.389-1.023.391-1.415 0zm5.4-13.964 4.95 4.95-3.811 3.845-4.95-4.95z"/></svg>