<svg id="Layer" enable-background="new 0 0 64 64" height="512" viewBox="0 0 64 64" width="512" xmlns="http://www.w3.org/2000/svg"><path d="m21 56c4.795 0 8.714-3.772 8.975-8.503l2.026-4.345 2.025 4.345c.259 4.731 4.179 8.503 8.974 8.503 4.963 0 9-4.038 9-9s-4.037-9-9-9c-.394 0-.78.034-1.161.084l-3.813-7.865 5.521-11.851c1.731-3.448.332-7.662-3.127-9.399l-1.53-.76c-.479-.237-1.032-.273-1.536-.101-.506.173-.921.54-1.153 1.021l-4.199 8.664-4.202-8.665c-.233-.48-.648-.848-1.153-1.021-.505-.172-1.058-.136-1.536.102l-1.538.763c-3.451 1.733-4.851 5.948-3.146 9.343l5.548 11.907-3.814 7.861c-.381-.049-.767-.083-1.161-.083-4.962 0-9 4.038-9 9s4.038 9 9 9zm27-9c0 2.757-2.243 5-5 5s-5-2.243-5-5 2.243-5 5-5 5 2.243 5 5zm-9.089-34.294c1.274.819 1.753 2.49 1.036 3.92l-4.171 8.953-1.552-3.201zm-15.049 1.579c.219-.66.651-1.212 1.227-1.58l12.983 26.773c-.906.596-1.693 1.352-2.332 2.226l-11.712-25.131c-.36-.717-.419-1.529-.166-2.288zm4.292 20.611 1.641 3.521-1.533 3.288c-.639-.874-1.426-1.63-2.332-2.226zm-7.154 7.104c2.757 0 5 2.243 5 5s-2.243 5-5 5-5-2.243-5-5 2.243-5 5-5z"/></svg>