<svg id="Layer" enable-background="new 0 0 64 64" height="512" viewBox="0 0 64 64" width="512" xmlns="http://www.w3.org/2000/svg"><path d="m40 20c1.104 0 2-.896 2-2v-6c0-1.104-.896-2-2-2h-30c-1.104 0-2 .896-2 2v6c0 1.104.896 2 2 2s2-.896 2-2v-4h7v36h-4c-1.104 0-2 .896-2 2s.896 2 2 2h20c1.104 0 2-.896 2-2s-.896-2-2-2h-4v-36h7v4c0 1.104.896 2 2 2zm-13 30h-4v-36h4z"/><path d="m53.106 32.211c-1.519.759-2.898 1.753-4.101 2.956l-.005.005v-11.172c0-1.104-.896-2-2-2s-2 .896-2 2v11.172l-.005-.005c-1.203-1.203-2.583-2.197-4.101-2.956-.987-.494-2.189-.093-2.683.895s-.093 2.189.895 2.684c1.133.566 2.163 1.309 3.061 2.206l3.419 3.419c.39.39.902.585 1.414.585s1.024-.195 1.414-.586l3.419-3.419c.898-.897 1.928-1.64 3.061-2.206.988-.494 1.389-1.695.895-2.684-.495-.987-1.696-1.388-2.683-.894z"/></svg>