<svg id="Layer" enable-background="new 0 0 64 64" height="512" viewBox="0 0 64 64" width="512" xmlns="http://www.w3.org/2000/svg"><path d="m54 24c-1.104 0-2 .896-2 2v24c0 1.103-.897 2-2 2h-36c-1.103 0-2-.897-2-2v-36c0-1.103.897-2 2-2h24c1.104 0 2-.896 2-2s-.896-2-2-2h-24c-3.309 0-6 2.691-6 6v36c0 3.309 2.691 6 6 6h36c3.309 0 6-2.691 6-6v-24c0-1.104-.896-2-2-2z"/><path d="m24 32.343v5.657c0 1.104.896 2 2 2h5.657c.53 0 1.039-.211 1.414-.586l21.757-21.757c1.56-1.56 1.56-4.097 0-5.657l-2.828-2.828c-1.559-1.559-4.096-1.559-5.657 0l-21.757 21.757c-.375.375-.586.884-.586 1.414zm25.17-20.344 2.83 2.83-2.829 2.829-2.83-2.83zm-21.17 21.172 15.514-15.516 2.83 2.83-15.516 15.515h-2.828z"/></svg>