<svg id="Layer" enable-background="new 0 0 64 64" height="512" viewBox="0 0 64 64" width="512" xmlns="http://www.w3.org/2000/svg"><path d="m18 18c1.104 0 2-.896 2-2v-4h6v24h-3c-1.104 0-2 .896-2 2s.896 2 2 2h18c1.104 0 2-.896 2-2s-.896-2-2-2h-3v-24h6v4c0 1.104.896 2 2 2s2-.896 2-2v-6c0-1.104-.896-2-2-2h-28c-1.104 0-2 .896-2 2v6c0 1.104.896 2 2 2zm16 18h-4v-24h4z"/><path d="m49.414 40.586c-.78-.781-2.048-.781-2.828 0-.781.781-.781 2.047 0 2.828l2.586 2.586h-34.344l2.586-2.586c.781-.781.781-2.047 0-2.828-.78-.781-2.048-.781-2.828 0l-6 6c-.781.781-.781 2.047 0 2.828l6 6c.39.391.902.586 1.414.586s1.024-.195 1.414-.586c.781-.781.781-2.047 0-2.828l-2.586-2.586h34.343l-2.586 2.586c-.781.781-.781 2.047 0 2.828.391.391.903.586 1.415.586s1.024-.195 1.414-.586l6-6c.781-.781.781-2.047 0-2.828z"/></svg>