<svg id="Layer" enable-background="new 0 0 64 64" height="512" viewBox="0 0 64 64" width="512" xmlns="http://www.w3.org/2000/svg"><path d="m12 35h6c2.206 0 4-1.794 4-4v-6c0-.173-.021-.34-.063-.5.042-.16.063-.327.063-.5v-5c0-2.757-2.243-5-5-5h-4c-1.334 0-2.589.521-3.534 1.466-.781.781-.781 2.047 0 2.828s2.047.781 2.828 0c.11-.11.348-.294.706-.294h4c.552 0 1 .449 1 1v3h-4c-3.309 0-6 2.691-6 6v3c0 2.206 1.794 4 4 4zm0-7c0-1.103.897-2 2-2h4v5h-6z"/><path d="m34 20h-5v-8c0-1.104-.896-2-2-2s-2 .896-2 2v21c0 1.104.896 2 2 2h7c2.757 0 5-2.243 5-5v-5c0-2.757-2.243-5-5-5zm1 10c0 .551-.448 1-1 1h-5v-7h5c.552 0 1 .449 1 1z"/><path d="m54 31h-5c-1.654 0-3-1.346-3-3v-3c0-1.654 1.346-3 3-3h5c1.104 0 2-.896 2-2s-.896-2-2-2h-5c-3.859 0-7 3.14-7 7v3c0 3.86 3.141 7 7 7h5c1.104 0 2-.896 2-2s-.896-2-2-2z"/><path d="m32 56c.512 0 1.023-.195 1.414-.586l14-14c.781-.781.781-2.047 0-2.828s-2.047-.781-2.828 0l-12.586 12.586-7.586-7.586c-.781-.781-2.047-.781-2.828 0s-.781 2.047 0 2.828l9 9c.391.391.902.586 1.414.586z"/></svg>