<svg id="Layer" enable-background="new 0 0 64 64" height="512" viewBox="0 0 64 64" width="512" xmlns="http://www.w3.org/2000/svg"><path d="m49.172 8c-1.069 0-2.074.417-2.828 1.172l-16.571 16.57c-.005.005-.012.009-.017.014s-.009.012-.014.017l-4.984 4.984c-2.338 2.339-2.338 6.146 0 8.486 1.17 1.169 2.706 1.754 4.243 1.754s3.073-.585 4.243-1.754l4.986-4.987c.005-.004.01-.007.015-.012s.007-.01.012-.015l16.572-16.573c1.56-1.56 1.56-4.097 0-5.657l-2.829-2.827c-.756-.756-1.76-1.172-2.828-1.172zm-18.757 28.414c-.78.78-2.049.78-2.829 0s-.78-2.049 0-2.829l3.585-3.585 2.829 2.828zm6.413-6.414-2.828-2.828 15.172-15.172 2.828 2.829z"/><path d="m52 45h-40c-2.206 0-4 1.794-4 4v3c0 2.206 1.794 4 4 4h40c2.206 0 4-1.794 4-4v-3c0-2.206-1.794-4-4-4zm0 7h-40l-.002-3h.002 40z"/></svg>