<svg id="Layer" enable-background="new 0 0 64 64" height="512" viewBox="0 0 64 64" width="512" xmlns="http://www.w3.org/2000/svg"><path d="m40 35.688c4.347-2.73 7-7.486 7-12.688 0-8.271-6.729-15-15-15s-15 6.729-15 15c0 5.202 2.653 9.958 7 12.688v7.312c0 3.309 2.691 6 6 6h4c3.309 0 6-2.691 6-6zm-19-12.688c0-6.065 4.935-11 11-11s11 4.935 11 11c0 4.121-2.27 7.859-5.922 9.755-.662.345-1.078 1.029-1.078 1.775v1.47h-8v-1.47c0-.746-.416-1.431-1.078-1.775-3.653-1.896-5.922-5.634-5.922-9.755zm13 22h-4c-1.103 0-2-.897-2-2v-3h8v3c0 1.103-.897 2-2 2z"/><path d="m26 52c-1.104 0-2 .896-2 2s.896 2 2 2h12c1.104 0 2-.896 2-2s-.896-2-2-2z"/></svg>