<svg id="Layer" enable-background="new 0 0 64 64" height="512" viewBox="0 0 64 64" width="512" xmlns="http://www.w3.org/2000/svg"><path d="m40 20c1.104 0 2-.896 2-2v-6c0-1.104-.896-2-2-2h-30c-1.104 0-2 .896-2 2v6c0 1.104.896 2 2 2s2-.896 2-2v-4h7v36h-4c-1.104 0-2 .896-2 2s.896 2 2 2h20c1.104 0 2-.896 2-2s-.896-2-2-2h-4v-36h7v4c0 1.104.896 2 2 2zm-13 30h-4v-36h4z"/><path d="m54.895 28.211c-1.135-.567-2.164-1.31-3.062-2.206l-3.419-3.419c-.781-.781-2.047-.781-2.828 0l-3.419 3.419c-.897.896-1.927 1.639-3.062 2.206-.988.494-1.389 1.695-.895 2.684.493.987 1.693 1.391 2.684.895 1.52-.76 2.899-1.755 4.101-2.956l.005-.006v11.172c0 1.104.896 2 2 2s2-.896 2-2v-11.172l.005.005c1.201 1.201 2.581 2.196 4.101 2.956.287.144.592.211.892.211.734 0 1.44-.404 1.791-1.105.494-.989.094-2.19-.894-2.684z"/></svg>