<svg id="Layer" enable-background="new 0 0 64 64" height="512" viewBox="0 0 64 64" width="512" xmlns="http://www.w3.org/2000/svg"><path d="m54 8h-24c-1.104 0-2 .896-2 2s.896 2 2 2h24c1.104 0 2-.896 2-2s-.896-2-2-2z"/><path d="m54 52h-24c-1.104 0-2 .896-2 2s.896 2 2 2h24c1.104 0 2-.896 2-2s-.896-2-2-2z"/><path d="m54 19h-24c-1.104 0-2 .896-2 2s.896 2 2 2h24c1.104 0 2-.896 2-2s-.896-2-2-2z"/><path d="m54 30h-24c-1.104 0-2 .896-2 2s.896 2 2 2h24c1.104 0 2-.896 2-2s-.896-2-2-2z"/><path d="m54 41h-24c-1.104 0-2 .896-2 2s.896 2 2 2h24c1.104 0 2-.896 2-2s-.896-2-2-2z"/><path d="m11.414 46.586c-.78-.781-2.048-.781-2.828 0-.781.781-.781 2.047 0 2.828l6 6c.39.391.902.586 1.414.586s1.024-.195 1.414-.586l6-6c.781-.781.781-2.047 0-2.828-.78-.781-2.048-.781-2.828 0l-2.586 2.586v-34.344l2.586 2.586c.39.391.902.586 1.414.586s1.024-.195 1.414-.586c.781-.781.781-2.047 0-2.828l-6-6c-.78-.781-2.048-.781-2.828 0l-6 6c-.781.781-.781 2.047 0 2.828.78.781 2.048.781 2.828 0l2.586-2.586v34.343z"/></svg>