<svg id="Layer" enable-background="new 0 0 64 64" height="512" viewBox="0 0 64 64" width="512" xmlns="http://www.w3.org/2000/svg"><path d="m50.5 9h-21c-3.032 0-5.5 2.467-5.5 5.5s2.468 5.5 5.5 5.5h21c3.032 0 5.5-2.467 5.5-5.5s-2.468-5.5-5.5-5.5zm0 7h-21c-.827 0-1.5-.673-1.5-1.5s.673-1.5 1.5-1.5h21c.827 0 1.5.673 1.5 1.5s-.673 1.5-1.5 1.5z"/><path d="m50.5 26h-21c-3.032 0-5.5 2.467-5.5 5.5 0 3.032 2.468 5.5 5.5 5.5h21c3.032 0 5.5-2.468 5.5-5.5 0-3.033-2.468-5.5-5.5-5.5zm0 7h-21c-.827 0-1.5-.673-1.5-1.5s.673-1.5 1.5-1.5h21c.827 0 1.5.673 1.5 1.5s-.673 1.5-1.5 1.5z"/><path d="m50.5 43h-21c-3.032 0-5.5 2.468-5.5 5.5s2.468 5.5 5.5 5.5h21c3.032 0 5.5-2.468 5.5-5.5s-2.468-5.5-5.5-5.5zm0 7h-21c-.827 0-1.5-.673-1.5-1.5s.673-1.5 1.5-1.5h21c.827 0 1.5.673 1.5 1.5s-.673 1.5-1.5 1.5z"/><path d="m10 21h8c1.104 0 2-.896 2-2v-8c0-1.104-.896-2-2-2h-8c-1.104 0-2 .896-2 2v8c0 1.104.896 2 2 2zm2-8h4v4h-4z"/><path d="m10 38h8c1.104 0 2-.896 2-2v-8c0-1.104-.896-2-2-2h-8c-1.104 0-2 .896-2 2v8c0 1.104.896 2 2 2zm2-8h4v4h-4z"/><path d="m10 55h8c1.104 0 2-.896 2-2v-8c0-1.104-.896-2-2-2h-8c-1.104 0-2 .896-2 2v8c0 1.104.896 2 2 2zm2-8h4v4h-4z"/></svg>