<svg id="Layer" enable-background="new 0 0 64 64" height="512" viewBox="0 0 64 64" width="512" xmlns="http://www.w3.org/2000/svg"><path d="m54 22c-1.104 0-2 .896-2 2v16h-22c-.514 0-1.007.197-1.379.552l-10.621 10.111v-8.663c0-1.104-.896-2-2-2h-4v-16c0-1.104-.896-2-2-2s-2 .896-2 2v16c0 2.206 1.794 4 4 4h2v8.998c0 1.186.669 2.23 1.747 2.726.408.188.837.279 1.262.279.698 0 1.385-.248 1.945-.729.026-.022.052-.045.077-.069l11.769-11.205h21.2c2.206 0 4-1.794 4-4v-16c0-1.104-.896-2-2-2z"/><path d="m22 36c0 1.104.896 2 2 2s2-.896 2-2c0-8.86 6.441-16.228 14.883-17.711l-2.297 2.297c-.781.781-.781 2.047 0 2.828.39.391.902.586 1.414.586s1.024-.195 1.414-.586l6-6c.781-.781.781-2.047 0-2.828l-6-6c-.78-.781-2.048-.781-2.828 0-.781.781-.781 2.047 0 2.828l2.752 2.753c-10.879 1.319-19.338 10.604-19.338 21.833z"/></svg>