<svg id="Layer" enable-background="new 0 0 64 64" height="512" viewBox="0 0 64 64" width="512" xmlns="http://www.w3.org/2000/svg"><path d="m54 28c-1.104 0-2 .896-2 2v16c0 1.103-.897 2-2 2h-36c-1.103 0-2-.897-2-2v-16c0-1.104-.896-2-2-2s-2 .896-2 2v16c0 3.309 2.691 6 6 6h36c3.309 0 6-2.691 6-6v-16c0-1.104-.896-2-2-2z"/><path d="m24 42c1.104 0 2-.896 2-2 0-8.86 6.441-16.228 14.883-17.711l-2.297 2.297c-.781.781-.781 2.047 0 2.828.391.391.902.586 1.414.586s1.023-.195 1.414-.586l6-6c.781-.781.781-2.047 0-2.828l-6-6c-.781-.781-2.047-.781-2.828 0s-.781 2.047 0 2.828l2.753 2.753c-10.88 1.318-19.339 10.603-19.339 21.833 0 1.104.896 2 2 2z"/></svg>