<svg id="Layer" enable-background="new 0 0 64 64" height="512" viewBox="0 0 64 64" width="512" xmlns="http://www.w3.org/2000/svg"><path d="m50.5 11h-21c-3.033 0-5.5 2.467-5.5 5.5s2.467 5.5 5.5 5.5h21c3.033 0 5.5-2.467 5.5-5.5s-2.467-5.5-5.5-5.5zm0 7h-21c-.827 0-1.5-.673-1.5-1.5s.673-1.5 1.5-1.5h21c.827 0 1.5.673 1.5 1.5s-.673 1.5-1.5 1.5z"/><path d="m50.5 39h-21c-3.033 0-5.5 2.467-5.5 5.5s2.467 5.5 5.5 5.5h21c3.033 0 5.5-2.467 5.5-5.5s-2.467-5.5-5.5-5.5zm0 7h-21c-.827 0-1.5-.673-1.5-1.5s.673-1.5 1.5-1.5h21c.827 0 1.5.673 1.5 1.5s-.673 1.5-1.5 1.5z"/><path d="m10 28c1.104 0 2-.896 2-2v-4h4v4c0 1.104.896 2 2 2s2-.896 2-2v-12c0-3.309-2.691-6-6-6s-6 2.691-6 6v12c0 1.104.896 2 2 2zm4-16c1.103 0 2 .897 2 2v4h-4v-4c0-1.103.897-2 2-2z"/><path d="m10 56h6c3.309 0 6-2.691 6-6 0-2.122-1.106-3.989-2.773-5.056.492-.871.773-1.875.773-2.944 0-3.309-2.691-6-6-6h-4c-1.104 0-2 .896-2 2v16c0 1.104.896 2 2 2zm2-16h2c1.103 0 2 .897 2 2s-.897 2-2 2h-2zm0 8h4c1.103 0 2 .897 2 2s-.897 2-2 2h-4z"/></svg>