<svg id="Layer" enable-background="new 0 0 64 64" height="512" viewBox="0 0 64 64" width="512" xmlns="http://www.w3.org/2000/svg"><path d="m54 8c-1.104 0-2 .896-2 2v12h-40v-12c0-1.104-.896-2-2-2s-2 .896-2 2v12c0 2.206 1.794 4 4 4h40c2.206 0 4-1.794 4-4v-12c0-1.104-.896-2-2-2z"/><path d="m52 38h-40c-2.206 0-4 1.794-4 4v12c0 1.104.896 2 2 2s2-.896 2-2v-12h40v12c0 1.104.896 2 2 2s2-.896 2-2v-12c0-2.206-1.794-4-4-4z"/><path d="m11 34h2c1.104 0 2-.896 2-2s-.896-2-2-2h-2c-1.104 0-2 .896-2 2s.896 2 2 2z"/><path d="m23 34c1.104 0 2-.896 2-2s-.896-2-2-2h-2c-1.104 0-2 .896-2 2s.896 2 2 2z"/><path d="m33 34c1.104 0 2-.896 2-2s-.896-2-2-2h-2c-1.104 0-2 .896-2 2s.896 2 2 2z"/><path d="m43 34c1.104 0 2-.896 2-2s-.896-2-2-2h-2c-1.104 0-2 .896-2 2s.896 2 2 2z"/><path d="m53 34c1.104 0 2-.896 2-2s-.896-2-2-2h-2c-1.104 0-2 .896-2 2s.896 2 2 2z"/></svg>