<svg id="Layer" enable-background="new 0 0 64 64" height="512" viewBox="0 0 64 64" width="512" xmlns="http://www.w3.org/2000/svg"><path d="m48 56c1.104 0 2-.896 2-2v-36c0-.53-.211-1.039-.586-1.414l-8-8c-.375-.375-.884-.586-1.414-.586h-24c-1.104 0-2 .896-2 2v44c0 1.104.896 2 2 2zm-2.829-38h-5.171v-5.171zm-27.171-6h18v8c0 1.104.896 2 2 2h8v30h-28z"/><path d="m41 30h-1.34l.306-1.631c.204-1.086-.512-2.131-1.597-2.334-1.083-.203-2.131.511-2.334 1.597l-.445 2.368h-3.93l.306-1.631c.204-1.086-.512-2.131-1.597-2.334-1.084-.203-2.131.511-2.334 1.597l-.445 2.368h-3.59c-1.104 0-2 .896-2 2s.896 2 2 2h2.84l-.75 4h-3.09c-1.104 0-2 .896-2 2s.896 2 2 2h2.34l-.306 1.632c-.204 1.085.512 2.13 1.597 2.334.125.023.249.034.371.034.943 0 1.783-.67 1.963-1.632l.445-2.368h3.93l-.306 1.632c-.204 1.085.512 2.13 1.597 2.334.125.023.249.034.371.034.943 0 1.783-.67 1.963-1.632l.445-2.368h2.59c1.104 0 2-.896 2-2s-.896-2-2-2h-1.84l.75-4h2.09c1.104 0 2-.896 2-2s-.896-2-2-2zm-6.91 8h-3.93l.75-4h3.93z"/></svg>