<svg id="Layer" enable-background="new 0 0 64 64" height="512" viewBox="0 0 64 64" width="512" xmlns="http://www.w3.org/2000/svg"><path d="m20.769 55.989c2.513 0 5.031-.961 6.958-2.888l21.378-22.377c5.188-5.188 5.188-13.63-.011-18.828-2.511-2.511-5.853-3.894-9.409-3.894s-6.898 1.383-9.448 3.934l-6.5 6.88c-.758.803-.723 2.069.081 2.827.8.758 2.068.724 2.827-.08l6.46-6.839c1.755-1.755 4.092-2.722 6.58-2.722s4.826.967 6.592 2.731c3.628 3.629 3.628 9.533-.032 13.195l-21.379 22.378c-2.254 2.253-5.918 2.253-8.172 0-1.092-1.093-1.694-2.543-1.694-4.086s.602-2.993 1.727-4.119l21.378-22.377c.839-.839 2.311-.85 3.171.009.872.872.872 2.291-.03 3.194l-21.91 22.91c-.764.798-.735 2.064.063 2.828.797.763 2.063.735 2.827-.063l21.879-22.878c2.431-2.431 2.431-6.387-.011-8.828-1.175-1.176-2.741-1.823-4.408-1.823-1.668 0-3.234.647-4.441 1.856l-21.379 22.377c-1.848 1.847-2.866 4.303-2.866 6.914s1.018 5.067 2.866 6.915c1.903 1.902 4.4 2.854 6.903 2.854z"/><path d="m15 33c.531 0 1.061-.21 1.454-.627l4.37-4.63c.759-.804.722-2.069-.081-2.828-.803-.758-2.07-.721-2.827.082l-4.37 4.63c-.759.804-.722 2.069.081 2.828.387.364.88.545 1.373.545z"/></svg>