<svg id="Layer" enable-background="new 0 0 64 64" height="512" viewBox="0 0 64 64" width="512" xmlns="http://www.w3.org/2000/svg"><path d="m52 10.172c-1.56-1.561-4.098-1.56-5.664.007l-10.887 10.994-4.236-4.236c-2.34-2.34-6.146-2.34-8.485 0l-2.829 2.829c-.781.781-.781 2.047 0 2.828l.707.707-1.126 1.126c-1.447 1.446-3.108 2.644-4.938 3.559l-5.437 2.719c-.575.288-.977.834-1.08 1.469s.105 1.28.56 1.734l20.506 20.506c.391.391.903.586 1.415.586s1.024-.195 1.414-.586l9.9-9.899.707.707c.391.391.902.586 1.414.586s1.023-.195 1.414-.586l2.829-2.828c2.338-2.34 2.338-6.146 0-8.485l-4.25-4.25 10.894-11.001c.755-.756 1.172-1.761 1.172-2.83 0-1.068-.416-2.072-1.172-2.828zm-21.494 40-17.129-17.13 2.955-1.478c2.215-1.108 4.226-2.558 5.978-4.309l1.126-1.126 15.557 15.556zm14.849-10.607-1.415 1.414-.707-.707-18.382-18.382c-.001-.001-.001-.002-.002-.003s-.002-.001-.003-.002l-.705-.705 1.415-1.415c.779-.779 2.049-.779 2.829 0l16.97 16.971c.78.781.78 2.049 0 2.829zm-4.249-12.735-2.829-2.828 10.893-11.004 2.823 2.837z"/></svg>