<svg id="Layer" enable-background="new 0 0 64 64" height="512" viewBox="0 0 64 64" width="512" xmlns="http://www.w3.org/2000/svg"><path d="m41 12h9c1.104 0 2-.896 2-2s-.896-2-2-2h-25c-7.168 0-13 5.832-13 13 0 3.474 1.352 6.739 3.806 9.194s5.719 3.806 9.194 3.806h2v20c0 1.104.896 2 2 2s2-.896 2-2v-42h6v30c0 1.104.896 2 2 2s2-.896 2-2zm-14 18h-2c-2.406 0-4.667-.936-6.366-2.634-1.698-1.699-2.634-3.96-2.634-6.366 0-4.962 4.037-9 9-9h2z"/><path d="m39 47c-1.104 0-2 .896-2 2v5c0 1.104.896 2 2 2s2-.896 2-2v-5c0-1.104-.896-2-2-2z"/></svg>