<svg id="Layer" enable-background="new 0 0 64 64" height="512" viewBox="0 0 64 64" width="512" xmlns="http://www.w3.org/2000/svg"><path d="m15 52h16v2c0 1.104.896 2 2 2h18c1.104 0 2-.896 2-2v-20c0-1.104-.896-2-2-2h-4v-14c0-2.206-1.794-4-4-4h-8c0-3.309-2.691-6-6-6s-6 2.691-6 6h-8c-2.206 0-4 1.794-4 4v30c0 2.206 1.794 4 4 4zm34 0h-14v-16h14zm-22-38c0-1.103.897-2 2-2s2 .897 2 2v2c0 1.104.896 2 2 2h2v4h-12v-4h2c1.104 0 2-.896 2-2zm-12 4h4v4c0 2.206 1.794 4 4 4h12c2.206 0 4-1.794 4-4v-4h4v14h-10c-1.104 0-2 .896-2 2v14h-16z"/></svg>