<svg id="Layer" enable-background="new 0 0 64 64" height="512" viewBox="0 0 64 64" width="512" xmlns="http://www.w3.org/2000/svg"><path d="m50 20h-4v-10c0-1.104-.896-2-2-2h-24c-1.104 0-2 .896-2 2v10h-4c-3.309 0-6 2.691-6 6v12c0 3.309 2.691 6 6 6h3.477l-1.455 9.703c-.086.576.083 1.161.462 1.602.38.441.934.695 1.516.695h28c.582 0 1.136-.254 1.516-.695s.549-1.026.462-1.602l-1.455-9.703h3.477c3.309 0 6-2.691 6-6v-12c0-3.309-2.691-6-6-6zm-28-8h20v8h-20zm-1.678 40 2.4-16h18.556l2.4 16zm31.678-14c0 1.103-.897 2-2 2h-4.077l-.945-6.297c-.147-.979-.988-1.703-1.978-1.703h-22c-.99 0-1.831.724-1.978 1.703l-.945 6.297h-4.077c-1.103 0-2-.897-2-2v-12c0-1.103.897-2 2-2h36c1.103 0 2 .897 2 2z"/><path d="m37 42h-10c-1.104 0-2 .896-2 2s.896 2 2 2h10c1.104 0 2-.896 2-2s-.896-2-2-2z"/></svg>