<svg id="Layer" enable-background="new 0 0 64 64" height="512" viewBox="0 0 64 64" width="512" xmlns="http://www.w3.org/2000/svg"><path d="m54 23.515c-1.104 0-2 .896-2 2v3.657l-16.444-16.444c-6.292-6.292-16.531-6.293-22.828.003-6.293 6.293-6.293 16.532 0 22.825l19.858 19.858c.39.391.902.586 1.414.586s1.024-.195 1.414-.586c.781-.781.781-2.047 0-2.828l-19.858-19.858c-4.733-4.733-4.733-12.436.003-17.172 4.733-4.733 12.436-4.733 17.169 0l16.444 16.444h-3.657c-1.104 0-2 .896-2 2s.896 2 2 2h8.485c1.104 0 2-.896 2-2v-8.485c0-1.105-.896-2-2-2z"/></svg>