<svg id="Layer" enable-background="new 0 0 64 64" height="512" viewBox="0 0 64 64" width="512" xmlns="http://www.w3.org/2000/svg"><path d="m50 8h-6-24-6c-3.309 0-6 2.691-6 6v36c0 3.309 2.691 6 6 6h6 24 6c3.309 0 6-2.691 6-6v-36c0-3.309-2.691-6-6-6zm-8 4v14h-20v-14zm-20.002 26h20.002v5h-20.002zm.002 14-.001-5h20.001v5zm30-2c0 1.103-.897 2-2 2h-4v-14c0-2.206-1.794-4-4-4h-20c-2.206 0-4 1.794-4 4v14h-4c-1.103 0-2-.897-2-2v-36c0-1.103.897-2 2-2h4v14c0 2.206 1.794 4 4 4h20c2.206 0 4-1.794 4-4v-14h4c1.103 0 2 .897 2 2z"/><path d="m37 23c1.104 0 2-.896 2-2v-4c0-1.104-.896-2-2-2s-2 .896-2 2v4c0 1.104.896 2 2 2z"/></svg>