<svg id="Layer" enable-background="new 0 0 64 64" height="512" viewBox="0 0 64 64" width="512" xmlns="http://www.w3.org/2000/svg"><path d="m39 8c-8.928 0-16.375 6.971-16.956 15.87-.072 1.102.763 2.054 1.866 2.126 1.097.081 2.054-.763 2.125-1.866.444-6.802 6.139-12.13 12.965-12.13 7.168 0 13 5.832 13 13s-5.832 13-13 13c-2.231 0-4.432-.576-6.366-1.669-.024-.015-.049-.028-.074-.042-2.031-1.162-3.715-2.851-4.871-4.887-.308-.543-.852-.911-1.471-.994-.621-.09-1.242.126-1.682.567l-14.781 14.781c-1.131 1.133-1.755 2.64-1.755 4.244s.624 3.111 1.756 4.244c1.17 1.17 2.707 1.755 4.244 1.755s3.074-.585 4.244-1.755l13.755-13.754c2.189.991 4.581 1.51 7.001 1.51 9.374 0 17-7.626 17-17s-7.626-17-17-17zm-23.584 43.416c-.78.779-2.05.781-2.832 0-.376-.377-.584-.88-.584-1.416s.208-1.039.584-1.416l13.066-13.066c.83 1.052 1.78 2.003 2.832 2.832z"/></svg>