<svg id="Layer" enable-background="new 0 0 64 64" height="512" viewBox="0 0 64 64" width="512" xmlns="http://www.w3.org/2000/svg"><path d="m48 56c1.104 0 2-.896 2-2v-24c0-.53-.211-1.039-.586-1.414l-8-8c-.375-.375-.884-.586-1.414-.586h-18c-1.104 0-2 .896-2 2v32c0 1.104.896 2 2 2zm-3.829-27h-4.171v-4.171zm-20.171-5h12v7c0 1.104.896 2 2 2h8v19h-22z"/><path d="m54 8c-1.104 0-2 .896-2 2h-28c0-1.104-.896-2-2-2s-2 .896-2 2v4c0 1.104.896 2 2 2s2-.896 2-2h28c0 1.104.896 2 2 2s2-.896 2-2v-4c0-1.104-.896-2-2-2z"/><path d="m8 54c0 1.104.896 2 2 2h4c1.104 0 2-.896 2-2s-.896-2-2-2v-28c1.104 0 2-.896 2-2s-.896-2-2-2h-4c-1.104 0-2 .896-2 2s.896 2 2 2v28c-1.104 0-2 .896-2 2z"/></svg>