<svg id="Layer" enable-background="new 0 0 64 64" height="512" viewBox="0 0 64 64" width="512" xmlns="http://www.w3.org/2000/svg"><path d="m30.817 45.612c.352.259.767.388 1.183.388s.831-.129 1.183-.388c1.305-.957 7.817-5.967 7.817-10.612 0-4.962-4.038-9-9-9s-9 4.038-9 9c0 4.645 6.512 9.655 7.817 10.612zm1.183-15.612c2.757 0 5 2.243 5 5 0 1.648-2.669 4.51-5.001 6.457-2.332-1.943-4.999-4.803-4.999-6.457 0-2.757 2.243-5 5-5z"/><path d="m54 42h-7.324c1.544-2.527 2.324-4.872 2.324-7 0-9.374-7.626-17-17-17s-17 7.626-17 17c0 2.128.78 4.473 2.324 7h-7.324c-1.104 0-2 .896-2 2s.896 2 2 2h11.21c.772 0 1.475-.444 1.807-1.142.331-.697.231-1.523-.256-2.122-2.461-3.018-3.761-5.693-3.761-7.736 0-7.168 5.832-13 13-13s13 5.832 13 13c0 2.043-1.3 4.718-3.76 7.736-.488.599-.587 1.425-.256 2.122.331.698 1.034 1.142 1.806 1.142h11.21c1.104 0 2-.896 2-2s-.896-2-2-2z"/></svg>