<svg id="Layer" enable-background="new 0 0 64 64" height="512" viewBox="0 0 64 64" width="512" xmlns="http://www.w3.org/2000/svg"><path d="m48 52h-32c-1.104 0-2 .896-2 2s.896 2 2 2h32c1.104 0 2-.896 2-2s-.896-2-2-2z"/><path d="m50 8h-4-8c-1.104 0-2 .896-2 2v34h-8v-34c0-1.104-.896-2-2-2h-8-4c-1.104 0-2 .896-2 2s.896 2 2 2h2v24c0 5.678 4.034 10.621 9.594 11.758.003.001.006.001.008.002.785.159 1.591.24 2.398.24h8c.792 0 1.584-.078 2.357-.232.029-.005.059-.011.087-.018 5.54-1.151 9.556-6.086 9.556-11.75v-24h2c1.104 0 2-.896 2-2s-.896-2-2-2zm-26 34.927c-2.414-1.401-4-4.021-4-6.927v-24h4zm20-6.927c0 2.907-1.586 5.525-4 6.928v-30.928h4z"/></svg>