<svg id="Layer" enable-background="new 0 0 64 64" height="512" viewBox="0 0 64 64" width="512" xmlns="http://www.w3.org/2000/svg"><path d="m10 36h8.485c1.104 0 2-.896 2-2s-.896-2-2-2h-3.657l16.444-16.444c4.733-4.733 12.435-4.733 17.172.003 4.733 4.733 4.733 12.436 0 17.169l-19.858 19.858c-.781.781-.781 2.047 0 2.828.39.391.902.586 1.414.586s1.024-.195 1.414-.586l19.858-19.858c6.293-6.293 6.293-16.532-.003-22.828-6.293-6.293-16.532-6.293-22.825 0l-16.444 16.444v-3.657c0-1.104-.896-2-2-2s-2 .896-2 2v8.485c0 1.104.896 2 2 2z"/></svg>