<?xml version="1.0" encoding="iso-8859-1"?>
<!-- Generator: Adobe Illustrator 19.0.0, SVG Export Plug-In . SVG Version: 6.00 Build 0)  -->
<svg version="1.1" id="Capa_1" xmlns="http://www.w3.org/2000/svg" xmlns:xlink="http://www.w3.org/1999/xlink" x="0px" y="0px"
	 viewBox="0 0 512 512" style="enable-background:new 0 0 512 512;" xml:space="preserve">
<path style="fill:#455A64;" d="M501.333,106.667H10.667C4.776,106.667,0,101.891,0,96c0-5.891,4.776-10.667,10.667-10.667h490.667
	C507.224,85.333,512,90.109,512,96C512,101.891,507.224,106.667,501.333,106.667z"/>
<path style="fill:#607D8B;" d="M501.333,170.667H10.667C4.776,170.667,0,165.891,0,160c0-5.891,4.776-10.667,10.667-10.667h490.667
	c5.891,0,10.667,4.776,10.667,10.667C512,165.891,507.224,170.667,501.333,170.667z"/>
<path style="fill:#455A64;" d="M501.333,234.667H10.667C4.776,234.667,0,229.891,0,224c0-5.891,4.776-10.667,10.667-10.667h490.667
	c5.891,0,10.667,4.776,10.667,10.667C512,229.891,507.224,234.667,501.333,234.667z"/>
<path style="fill:#607D8B;" d="M501.333,298.667H10.667C4.776,298.667,0,293.891,0,288c0-5.891,4.776-10.667,10.667-10.667h490.667
	c5.891,0,10.667,4.776,10.667,10.667C512,293.891,507.224,298.667,501.333,298.667z"/>
<path style="fill:#455A64;" d="M501.333,362.667H10.667C4.776,362.667,0,357.891,0,352c0-5.891,4.776-10.667,10.667-10.667h490.667
	c5.891,0,10.667,4.776,10.667,10.667C512,357.891,507.224,362.667,501.333,362.667z"/>
<path style="fill:#607D8B;" d="M501.333,426.667H160c-5.891,0-10.667-4.776-10.667-10.667c0-5.891,4.776-10.667,10.667-10.667
	h341.333c5.891,0,10.667,4.776,10.667,10.667C512,421.891,507.224,426.667,501.333,426.667z"/>
<path d="M501.333,106.667H10.667C4.776,106.667,0,101.891,0,96c0-5.891,4.776-10.667,10.667-10.667h490.667
	C507.224,85.333,512,90.109,512,96C512,101.891,507.224,106.667,501.333,106.667z"/>
<path d="M501.333,170.667H10.667C4.776,170.667,0,165.891,0,160c0-5.891,4.776-10.667,10.667-10.667h490.667
	c5.891,0,10.667,4.776,10.667,10.667C512,165.891,507.224,170.667,501.333,170.667z"/>
<path d="M501.333,234.667H10.667C4.776,234.667,0,229.891,0,224c0-5.891,4.776-10.667,10.667-10.667h490.667
	c5.891,0,10.667,4.776,10.667,10.667C512,229.891,507.224,234.667,501.333,234.667z"/>
<path d="M501.333,298.667H10.667C4.776,298.667,0,293.891,0,288c0-5.891,4.776-10.667,10.667-10.667h490.667
	c5.891,0,10.667,4.776,10.667,10.667C512,293.891,507.224,298.667,501.333,298.667z"/>
<path d="M501.333,362.667H10.667C4.776,362.667,0,357.891,0,352c0-5.891,4.776-10.667,10.667-10.667h490.667
	c5.891,0,10.667,4.776,10.667,10.667C512,357.891,507.224,362.667,501.333,362.667z"/>
<path d="M501.333,426.667H160c-5.891,0-10.667-4.776-10.667-10.667c0-5.891,4.776-10.667,10.667-10.667h341.333
	c5.891,0,10.667,4.776,10.667,10.667C512,421.891,507.224,426.667,501.333,426.667z"/>
<g>
</g>
<g>
</g>
<g>
</g>
<g>
</g>
<g>
</g>
<g>
</g>
<g>
</g>
<g>
</g>
<g>
</g>
<g>
</g>
<g>
</g>
<g>
</g>
<g>
</g>
<g>
</g>
<g>
</g>
</svg>
