<svg height="512pt" viewBox="0 0 512 512" width="512pt" xmlns="http://www.w3.org/2000/svg"><path d="m112 240h192v32h-192zm0 0" fill="#e5bd76"/><path d="m128 496h-96v-480h96zm0 0" fill="#ecce93"/><path d="m384 496h-96v-480h96zm0 0" fill="#ecce93"/><path d="m416 176v32h64v32h-32v32h32v32h-64v32h96v-160zm0 0" fill="#aa854b"/><g fill="#e5bd76"><path d="m144 32h-128c-8.832031 0-16-7.167969-16-16s7.167969-16 16-16h128c8.832031 0 16 7.167969 16 16s-7.167969 16-16 16zm0 0"/><path d="m144 512h-128c-8.832031 0-16-7.167969-16-16s7.167969-16 16-16h128c8.832031 0 16 7.167969 16 16s-7.167969 16-16 16zm0 0"/><path d="m400 512h-128c-8.832031 0-16-7.167969-16-16s7.167969-16 16-16h128c8.832031 0 16 7.167969 16 16s-7.167969 16-16 16zm0 0"/><path d="m400 32h-128c-8.832031 0-16-7.167969-16-16s7.167969-16 16-16h128c8.832031 0 16 7.167969 16 16s-7.167969 16-16 16zm0 0"/></g></svg>