<svg height="427pt" viewBox="-43 0 427 427.56267" width="427pt" xmlns="http://www.w3.org/2000/svg"><path d="m325.613281 229.800781h-309.332031c-8.832031 0-16-7.167969-16-16s7.167969-16 16-16h309.332031c8.832031 0 16 7.167969 16 16s-7.167969 16-16 16zm0 0"/><path d="m170.949219 427.5625c-70.59375 0-128-51.542969-128-114.902344 0-8.832031 7.167969-16 16-16s16 7.167969 16 16c0 45.71875 43.070312 82.902344 96 82.902344 52.925781 0 96-37.183594 96-82.902344 0-45.695312-43.074219-82.878906-96-82.878906-70.59375 0-128-51.542969-128-114.902344 0-63.335937 57.40625-114.878906 128-114.878906 70.589843 0 128 51.542969 128 114.878906 0 8.832032-7.167969 16-16 16s-16-7.144531-16-15.976562c0-45.695313-43.074219-82.882813-96-82.882813-52.929688 0-96 37.1875-96 82.882813 0 45.714844 43.070312 82.898437 96 82.898437 70.589843 0 128 51.542969 128 114.882813 0 63.335937-57.410157 114.878906-128 114.878906zm0 0"/></svg>